<svg xmlns="http://www.w3.org/2000/svg" viewBox="0 0 1600 900" width="1600" height="900" font-family="Segoe UI, Arial, sans-serif"><defs><linearGradient id="sky" x1="0" y1="0" x2="0" y2="1"><stop offset="0" stop-color="#bfe6f0"/><stop offset="1" stop-color="#e9f6f3"/></linearGradient><linearGradient id="grass" x1="0" y1="0" x2="0" y2="1"><stop offset="0" stop-color="#4c8340"/><stop offset="1" stop-color="#5f9b50"/></linearGradient></defs><rect width="1600" height="900" fill="url(#grass)"/><rect width="1600" height="290" fill="url(#sky)"/><path d="M0 300Q30 255 60 295Q90 275 120 295Q150 255 180 295Q210 275 240 295Q270 255 300 295Q330 275 360 295Q390 255 420 295Q450 275 480 295Q510 255 540 295Q570 275 600 295Q630 255 660 295Q690 275 720 295Q750 255 780 295Q810 275 840 295Q870 255 900 295Q930 275 960 295Q990 255 1020 295Q1050 275 1080 295Q1110 255 1140 295Q1170 275 1200 295Q1230 255 1260 295Q1290 275 1320 295Q1350 255 1380 295Q1410 275 1440 295Q1470 255 1500 295Q1530 275 1560 295Q1590 255 1620 295L1600 320 L0 320 Z" fill="#3f7a3a"/><rect x="120" y="232" width="45" height="48" fill="#9fb6bd" opacity="0.6"/><rect x="380" y="227" width="77" height="53" fill="#9fb6bd" opacity="0.6"/><rect x="640" y="249" width="40" height="31" fill="#9fb6bd" opacity="0.6"/><rect x="900" y="218" width="42" height="62" fill="#9fb6bd" opacity="0.6"/><rect x="1160" y="229" width="73" height="51" fill="#9fb6bd" opacity="0.6"/><rect x="1420" y="249" width="68" height="31" fill="#9fb6bd" opacity="0.6"/><rect x="78.0" y="235.0" width="4" height="65.0" fill="#071c27"/><rect x="73.0" y="231.0" width="14" height="6" rx="2" fill="#11212b"/><circle cx="80.0" cy="235.0" r="4.5" fill="#fff"/><rect x="228.0" y="235.0" width="4" height="65.0" fill="#071c27"/><rect x="223.0" y="231.0" width="14" height="6" rx="2" fill="#11212b"/><circle cx="230.0" cy="235.0" r="4.5" fill="#fff"/><rect x="378.0" y="235.0" width="4" height="65.0" fill="#071c27"/><rect x="373.0" y="231.0" width="14" height="6" rx="2" fill="#11212b"/><circle cx="380.0" cy="235.0" r="4.5" fill="#fff"/><rect x="528.0" y="235.0" width="4" height="65.0" fill="#071c27"/><rect x="523.0" y="231.0" width="14" height="6" rx="2" fill="#11212b"/><circle cx="530.0" cy="235.0" r="4.5" fill="#fff"/><rect x="678.0" y="235.0" width="4" height="65.0" fill="#071c27"/><rect x="673.0" y="231.0" width="14" height="6" rx="2" fill="#11212b"/><circle cx="680.0" cy="235.0" r="4.5" fill="#fff"/><rect x="828.0" y="235.0" width="4" height="65.0" fill="#071c27"/><rect x="823.0" y="231.0" width="14" height="6" rx="2" fill="#11212b"/><circle cx="830.0" cy="235.0" r="4.5" fill="#fff"/><rect x="978.0" y="235.0" width="4" height="65.0" fill="#071c27"/><rect x="973.0" y="231.0" width="14" height="6" rx="2" fill="#11212b"/><circle cx="980.0" cy="235.0" r="4.5" fill="#fff"/><rect x="1128.0" y="235.0" width="4" height="65.0" fill="#071c27"/><rect x="1123.0" y="231.0" width="14" height="6" rx="2" fill="#11212b"/><circle cx="1130.0" cy="235.0" r="4.5" fill="#fff"/><rect x="1278.0" y="235.0" width="4" height="65.0" fill="#071c27"/><rect x="1273.0" y="231.0" width="14" height="6" rx="2" fill="#11212b"/><circle cx="1280.0" cy="235.0" r="4.5" fill="#fff"/><rect x="1428.0" y="235.0" width="4" height="65.0" fill="#071c27"/><rect x="1423.0" y="231.0" width="14" height="6" rx="2" fill="#11212b"/><circle cx="1430.0" cy="235.0" r="4.5" fill="#fff"/><rect x="1578.0" y="235.0" width="4" height="65.0" fill="#071c27"/><rect x="1573.0" y="231.0" width="14" height="6" rx="2" fill="#11212b"/><circle cx="1580.0" cy="235.0" r="4.5" fill="#fff"/><polygon points="430,300 1170,300 1480,860 120,860" fill="#f4ead7"/><polygon points="430,300 1170,300 1480,860 120,860" fill="#e6d6b8" opacity="0.25"/><line x1="444.8" y1="300.0" x2="147.2" y2="860.0" stroke="#fff" stroke-width="2.5" opacity="0.55"/><line x1="618.7" y1="300.0" x2="466.8" y2="860.0" stroke="#fff" stroke-width="2.5" opacity="0.55"/><line x1="800.0" y1="300.0" x2="800.0" y2="860.0" stroke="#fff" stroke-width="2.5" opacity="0.55"/><line x1="981.3" y1="300.0" x2="1133.2" y2="860.0" stroke="#fff" stroke-width="2.5" opacity="0.55"/><line x1="1155.2" y1="300.0" x2="1452.8" y2="860.0" stroke="#fff" stroke-width="2.5" opacity="0.55"/><line x1="423.8" y1="311.2" x2="1176.2" y2="311.2" stroke="#fff" stroke-width="2.5" opacity="0.5"/><line x1="126.2" y1="848.8" x2="1473.8" y2="848.8" stroke="#fff" stroke-width="2.5" opacity="0.5"/><line x1="296.0" y1="580.0" x2="542.8" y2="580.0" stroke="#15323f" stroke-width="3" opacity="0.7"/><rect x="294.0" y="538.6" width="4" height="41.4" fill="#071c27"/><rect x="540.8" y="538.6" width="4" height="41.4" fill="#071c27"/><line x1="542.8" y1="580.0" x2="800.0" y2="580.0" stroke="#15323f" stroke-width="3" opacity="0.7"/><rect x="540.8" y="538.6" width="4" height="41.4" fill="#071c27"/><rect x="798.0" y="538.6" width="4" height="41.4" fill="#071c27"/><line x1="800.0" y1="580.0" x2="1057.2" y2="580.0" stroke="#15323f" stroke-width="3" opacity="0.7"/><rect x="798.0" y="538.6" width="4" height="41.4" fill="#071c27"/><rect x="1055.2" y="538.6" width="4" height="41.4" fill="#071c27"/><line x1="1057.2" y1="580.0" x2="1304.0" y2="580.0" stroke="#15323f" stroke-width="3" opacity="0.7"/><rect x="1055.2" y="538.6" width="4" height="41.4" fill="#071c27"/><rect x="1302.0" y="538.6" width="4" height="41.4" fill="#071c27"/><g><ellipse cx="552.6" cy="604.4" rx="8.3" ry="3.3" fill="#000" opacity="0.13"/><ellipse cx="552.6" cy="600.8" rx="4.4" ry="5.8" fill="#ffffff"/><circle cx="552.6" cy="597.5" r="2.9" fill="#e7c39c"/></g><g><ellipse cx="775.1" cy="621.7" rx="8.5" ry="3.4" fill="#000" opacity="0.13"/><ellipse cx="775.1" cy="618.0" rx="4.5" ry="6.0" fill="#1aa6b7"/><circle cx="775.1" cy="614.6" r="3.0" fill="#e7c39c"/></g><g><ellipse cx="770.9" cy="607.5" rx="8.4" ry="3.3" fill="#000" opacity="0.13"/><ellipse cx="770.9" cy="603.9" rx="4.5" ry="5.9" fill="#3f7fc4"/><circle cx="770.9" cy="600.5" r="2.9" fill="#e7c39c"/></g><g><ellipse cx="767.9" cy="742.6" rx="9.9" ry="4.0" fill="#000" opacity="0.13"/><ellipse cx="767.9" cy="738.3" rx="5.3" ry="6.9" fill="#e85d8a"/><circle cx="767.9" cy="734.3" r="3.5" fill="#e7c39c"/></g><g><circle cx="782.4" cy="758.0" r="4.9" fill="#fff" stroke="#d8cdb6" stroke-width="0.30"/><path d="M777.4 758.0 Q782.4 755.6 787.3 758.0" fill="none" stroke="#1aa6b7" stroke-width="0.49" opacity="0.7"/><path d="M782.4 753.1 Q784.8 758.0 782.4 763.0" fill="none" stroke="#1aa6b7" stroke-width="0.49" opacity="0.7"/></g><g><ellipse cx="595.1" cy="418.8" rx="6.3" ry="2.5" fill="#000" opacity="0.13"/><ellipse cx="595.1" cy="416.1" rx="3.3" ry="4.4" fill="#7d57c9"/><circle cx="595.1" cy="413.6" r="2.2" fill="#e7c39c"/></g><g><ellipse cx="924.1" cy="377.4" rx="5.8" ry="2.3" fill="#000" opacity="0.13"/><ellipse cx="924.1" cy="374.9" rx="3.1" ry="4.1" fill="#1aa6b7"/><circle cx="924.1" cy="372.6" r="2.0" fill="#e7c39c"/></g><g><circle cx="905.4" cy="386.5" r="2.9" fill="#fff" stroke="#d8cdb6" stroke-width="0.17"/><path d="M902.5 386.5 Q905.4 385.1 908.3 386.5" fill="none" stroke="#1aa6b7" stroke-width="0.29" opacity="0.7"/><path d="M905.4 383.6 Q906.8 386.5 905.4 389.4" fill="none" stroke="#1aa6b7" stroke-width="0.29" opacity="0.7"/></g><g><ellipse cx="1133.2" cy="570.6" rx="8.0" ry="3.2" fill="#000" opacity="0.13"/><ellipse cx="1133.2" cy="567.2" rx="4.2" ry="5.6" fill="#7d57c9"/><circle cx="1133.2" cy="564.0" r="2.8" fill="#e7c39c"/></g><g><ellipse cx="1168.8" cy="533.9" rx="7.5" ry="3.0" fill="#000" opacity="0.13"/><ellipse cx="1168.8" cy="530.6" rx="4.0" ry="5.3" fill="#e85d8a"/><circle cx="1168.8" cy="527.6" r="2.6" fill="#e7c39c"/></g><g><ellipse cx="484.5" cy="519.9" rx="7.4" ry="3.0" fill="#000" opacity="0.13"/><ellipse cx="484.5" cy="516.7" rx="3.9" ry="5.2" fill="#1aa6b7"/><circle cx="484.5" cy="513.8" r="2.6" fill="#e7c39c"/></g><g><circle cx="473.2" cy="531.5" r="3.7" fill="#fff" stroke="#d8cdb6" stroke-width="0.22"/><path d="M469.5 531.5 Q473.2 529.7 476.9 531.5" fill="none" stroke="#1aa6b7" stroke-width="0.37" opacity="0.7"/><path d="M473.2 527.8 Q475.0 531.5 473.2 535.2" fill="none" stroke="#1aa6b7" stroke-width="0.37" opacity="0.7"/></g><g><ellipse cx="1216.5" cy="553.3" rx="7.8" ry="3.1" fill="#000" opacity="0.13"/><ellipse cx="1216.5" cy="550.0" rx="4.1" ry="5.4" fill="#2f3b52"/><circle cx="1216.5" cy="546.9" r="2.7" fill="#e7c39c"/></g><g><ellipse cx="1119.4" cy="618.5" rx="8.5" ry="3.4" fill="#000" opacity="0.13"/><ellipse cx="1119.4" cy="614.8" rx="4.5" ry="5.9" fill="#7d57c9"/><circle cx="1119.4" cy="611.4" r="3.0" fill="#e7c39c"/></g><g><ellipse cx="1207.2" cy="669.5" rx="9.1" ry="3.6" fill="#000" opacity="0.13"/><ellipse cx="1207.2" cy="665.6" rx="4.8" ry="6.3" fill="#1aa6b7"/><circle cx="1207.2" cy="662.0" r="3.2" fill="#e7c39c"/></g><g><ellipse cx="1292.2" cy="664.5" rx="9.0" ry="3.6" fill="#000" opacity="0.13"/><ellipse cx="1292.2" cy="660.6" rx="4.8" ry="6.3" fill="#ffc14d"/><circle cx="1292.2" cy="657.0" r="3.2" fill="#e7c39c"/></g><g><ellipse cx="636.3" cy="603.3" rx="8.3" ry="3.3" fill="#000" opacity="0.13"/><ellipse cx="636.3" cy="599.6" rx="4.4" ry="5.8" fill="#ff6b4a"/><circle cx="636.3" cy="596.3" r="2.9" fill="#e7c39c"/></g><g><ellipse cx="489.2" cy="740.3" rx="9.9" ry="3.9" fill="#000" opacity="0.13"/><ellipse cx="489.2" cy="736.0" rx="5.3" ry="6.9" fill="#2f3b52"/><circle cx="489.2" cy="732.0" r="3.4" fill="#e7c39c"/></g><g><circle cx="471.7" cy="755.7" r="4.9" fill="#fff" stroke="#d8cdb6" stroke-width="0.30"/><path d="M466.8 755.7 Q471.7 753.2 476.6 755.7" fill="none" stroke="#1aa6b7" stroke-width="0.49" opacity="0.7"/><path d="M471.7 750.8 Q474.2 755.7 471.7 760.6" fill="none" stroke="#1aa6b7" stroke-width="0.49" opacity="0.7"/></g><g><ellipse cx="1206.5" cy="815.0" rx="10.7" ry="4.3" fill="#000" opacity="0.13"/><ellipse cx="1206.5" cy="810.4" rx="5.7" ry="7.5" fill="#ff6b4a"/><circle cx="1206.5" cy="806.1" r="3.7" fill="#e7c39c"/></g><g><circle cx="1189.2" cy="831.8" r="5.3" fill="#fff" stroke="#d8cdb6" stroke-width="0.32"/><path d="M1183.8 831.8 Q1189.2 829.1 1194.5 831.8" fill="none" stroke="#1aa6b7" stroke-width="0.53" opacity="0.7"/><path d="M1189.2 826.4 Q1191.8 831.8 1189.2 837.1" fill="none" stroke="#1aa6b7" stroke-width="0.53" opacity="0.7"/></g><g><ellipse cx="1079.6" cy="356.7" rx="5.6" ry="2.2" fill="#000" opacity="0.13"/><ellipse cx="1079.6" cy="354.3" rx="3.0" ry="3.9" fill="#7d57c9"/><circle cx="1079.6" cy="352.0" r="1.9" fill="#e7c39c"/></g><g><ellipse cx="1066.6" cy="368.1" rx="5.7" ry="2.3" fill="#000" opacity="0.13"/><ellipse cx="1066.6" cy="365.6" rx="3.0" ry="4.0" fill="#1aa6b7"/><circle cx="1066.6" cy="363.3" r="2.0" fill="#e7c39c"/></g><g><circle cx="1070.0" cy="377.0" r="2.8" fill="#fff" stroke="#d8cdb6" stroke-width="0.17"/><path d="M1067.2 377.0 Q1070.0 375.5 1072.9 377.0" fill="none" stroke="#1aa6b7" stroke-width="0.28" opacity="0.7"/><path d="M1070.0 374.1 Q1071.4 377.0 1070.0 379.8" fill="none" stroke="#1aa6b7" stroke-width="0.28" opacity="0.7"/></g><g><ellipse cx="856.8" cy="782.9" rx="10.3" ry="4.1" fill="#000" opacity="0.13"/><ellipse cx="856.8" cy="778.5" rx="5.5" ry="7.2" fill="#2f3b52"/><circle cx="856.8" cy="774.3" r="3.6" fill="#e7c39c"/></g><g><ellipse cx="1217.1" cy="493.5" rx="7.1" ry="2.8" fill="#000" opacity="0.13"/><ellipse cx="1217.1" cy="490.5" rx="3.8" ry="5.0" fill="#ff6b4a"/><circle cx="1217.1" cy="487.6" r="2.5" fill="#e7c39c"/></g><g><circle cx="1218.6" cy="504.7" r="3.5" fill="#fff" stroke="#d8cdb6" stroke-width="0.21"/><path d="M1215.0 504.7 Q1218.6 502.9 1222.1 504.7" fill="none" stroke="#1aa6b7" stroke-width="0.35" opacity="0.7"/><path d="M1218.6 501.1 Q1220.3 504.7 1218.6 508.2" fill="none" stroke="#1aa6b7" stroke-width="0.35" opacity="0.7"/></g><polygon points="1480,470 1600,440 1600,660 1480,690" fill="#1aa6b7" opacity="0.92"/><polygon points="1480,470 1600,440 1600,455 1480,485" fill="#0e7e8c"/><g><rect x="300" y="855" width="120" height="20" rx="4" fill="#25c3d6"/><rect x="308" y="875" width="104" height="14" rx="3" fill="#159aab"/></g><g><rect x="640" y="855" width="120" height="20" rx="4" fill="#25c3d6"/><rect x="648" y="875" width="104" height="14" rx="3" fill="#159aab"/></g><g><rect x="980" y="855" width="120" height="20" rx="4" fill="#25c3d6"/><rect x="988" y="875" width="104" height="14" rx="3" fill="#159aab"/></g></svg>