<svg xmlns="http://www.w3.org/2000/svg" viewBox="0 0 1200 900" width="1200" height="900" font-family="Segoe UI, Arial, sans-serif"><defs><linearGradient id="sky2" x1="0" y1="0" x2="0" y2="1"><stop offset="0" stop-color="#9fd6e6"/><stop offset="1" stop-color="#dff1ee"/></linearGradient></defs><rect width="1200" height="900" fill="url(#sky2)"/><rect y="430" width="1200" height="60" fill="#3f7a3a" opacity="0.8"/><polygon points="60,470 360,430 360,520 60,540" fill="#1aa6b7" opacity="0.5"/><g><ellipse cx="120.0" cy="562.7" rx="18.0" ry="3.6" fill="#000" opacity="0.12"/><path d="M109.2 560.0 L120.0 518.6" fill="none" stroke="#7f99a3" stroke-width="10.8" stroke-linecap="round" stroke-linejoin="round"/><path d="M130.8 560.0 L120.0 518.6" fill="none" stroke="#7f99a3" stroke-width="10.8" stroke-linecap="round" stroke-linejoin="round"/><path d="M120.0 518.6 L120.0 489.8" fill="none" stroke="#7f99a3" stroke-width="13.5" stroke-linecap="round" stroke-linejoin="round"/><path d="M120.0 489.8 L103.8 511.4" fill="none" stroke="#9bb0b8" stroke-width="10.8" stroke-linecap="round" stroke-linejoin="round"/><path d="M120.0 489.8 L136.2 511.4" fill="none" stroke="#9bb0b8" stroke-width="10.8" stroke-linecap="round" stroke-linejoin="round"/><circle cx="120.0" cy="477.2" r="9.9" fill="#9bb0b8"/></g><g><ellipse cx="240.0" cy="562.7" rx="18.0" ry="3.6" fill="#000" opacity="0.12"/><path d="M229.2 560.0 L240.0 518.6" fill="none" stroke="#7f99a3" stroke-width="10.8" stroke-linecap="round" stroke-linejoin="round"/><path d="M250.8 560.0 L240.0 518.6" fill="none" stroke="#7f99a3" stroke-width="10.8" stroke-linecap="round" stroke-linejoin="round"/><path d="M240.0 518.6 L240.0 489.8" fill="none" stroke="#7f99a3" stroke-width="13.5" stroke-linecap="round" stroke-linejoin="round"/><path d="M240.0 489.8 L223.8 511.4" fill="none" stroke="#9bb0b8" stroke-width="10.8" stroke-linecap="round" stroke-linejoin="round"/><path d="M240.0 489.8 L256.2 511.4" fill="none" stroke="#9bb0b8" stroke-width="10.8" stroke-linecap="round" stroke-linejoin="round"/><circle cx="240.0" cy="477.2" r="9.9" fill="#9bb0b8"/></g><g><ellipse cx="360.0" cy="562.7" rx="18.0" ry="3.6" fill="#000" opacity="0.12"/><path d="M349.2 560.0 L360.0 518.6" fill="none" stroke="#7f99a3" stroke-width="10.8" stroke-linecap="round" stroke-linejoin="round"/><path d="M370.8 560.0 L360.0 518.6" fill="none" stroke="#7f99a3" stroke-width="10.8" stroke-linecap="round" stroke-linejoin="round"/><path d="M360.0 518.6 L360.0 489.8" fill="none" stroke="#7f99a3" stroke-width="13.5" stroke-linecap="round" stroke-linejoin="round"/><path d="M360.0 489.8 L343.8 511.4" fill="none" stroke="#9bb0b8" stroke-width="10.8" stroke-linecap="round" stroke-linejoin="round"/><path d="M360.0 489.8 L376.2 511.4" fill="none" stroke="#9bb0b8" stroke-width="10.8" stroke-linecap="round" stroke-linejoin="round"/><circle cx="360.0" cy="477.2" r="9.9" fill="#9bb0b8"/></g><g><ellipse cx="480.0" cy="562.7" rx="18.0" ry="3.6" fill="#000" opacity="0.12"/><path d="M469.2 560.0 L480.0 518.6" fill="none" stroke="#7f99a3" stroke-width="10.8" stroke-linecap="round" stroke-linejoin="round"/><path d="M490.8 560.0 L480.0 518.6" fill="none" stroke="#7f99a3" stroke-width="10.8" stroke-linecap="round" stroke-linejoin="round"/><path d="M480.0 518.6 L480.0 489.8" fill="none" stroke="#7f99a3" stroke-width="13.5" stroke-linecap="round" stroke-linejoin="round"/><path d="M480.0 489.8 L463.8 511.4" fill="none" stroke="#9bb0b8" stroke-width="10.8" stroke-linecap="round" stroke-linejoin="round"/><path d="M480.0 489.8 L496.2 511.4" fill="none" stroke="#9bb0b8" stroke-width="10.8" stroke-linecap="round" stroke-linejoin="round"/><circle cx="480.0" cy="477.2" r="9.9" fill="#9bb0b8"/></g><g><ellipse cx="600.0" cy="562.7" rx="18.0" ry="3.6" fill="#000" opacity="0.12"/><path d="M589.2 560.0 L600.0 518.6" fill="none" stroke="#7f99a3" stroke-width="10.8" stroke-linecap="round" stroke-linejoin="round"/><path d="M610.8 560.0 L600.0 518.6" fill="none" stroke="#7f99a3" stroke-width="10.8" stroke-linecap="round" stroke-linejoin="round"/><path d="M600.0 518.6 L600.0 489.8" fill="none" stroke="#7f99a3" stroke-width="13.5" stroke-linecap="round" stroke-linejoin="round"/><path d="M600.0 489.8 L583.8 511.4" fill="none" stroke="#9bb0b8" stroke-width="10.8" stroke-linecap="round" stroke-linejoin="round"/><path d="M600.0 489.8 L616.2 511.4" fill="none" stroke="#9bb0b8" stroke-width="10.8" stroke-linecap="round" stroke-linejoin="round"/><circle cx="600.0" cy="477.2" r="9.9" fill="#9bb0b8"/></g><g><ellipse cx="720.0" cy="562.7" rx="18.0" ry="3.6" fill="#000" opacity="0.12"/><path d="M709.2 560.0 L720.0 518.6" fill="none" stroke="#7f99a3" stroke-width="10.8" stroke-linecap="round" stroke-linejoin="round"/><path d="M730.8 560.0 L720.0 518.6" fill="none" stroke="#7f99a3" stroke-width="10.8" stroke-linecap="round" stroke-linejoin="round"/><path d="M720.0 518.6 L720.0 489.8" fill="none" stroke="#7f99a3" stroke-width="13.5" stroke-linecap="round" stroke-linejoin="round"/><path d="M720.0 489.8 L703.8 511.4" fill="none" stroke="#9bb0b8" stroke-width="10.8" stroke-linecap="round" stroke-linejoin="round"/><path d="M720.0 489.8 L736.2 511.4" fill="none" stroke="#9bb0b8" stroke-width="10.8" stroke-linecap="round" stroke-linejoin="round"/><circle cx="720.0" cy="477.2" r="9.9" fill="#9bb0b8"/></g><g><ellipse cx="840.0" cy="562.7" rx="18.0" ry="3.6" fill="#000" opacity="0.12"/><path d="M829.2 560.0 L840.0 518.6" fill="none" stroke="#7f99a3" stroke-width="10.8" stroke-linecap="round" stroke-linejoin="round"/><path d="M850.8 560.0 L840.0 518.6" fill="none" stroke="#7f99a3" stroke-width="10.8" stroke-linecap="round" stroke-linejoin="round"/><path d="M840.0 518.6 L840.0 489.8" fill="none" stroke="#7f99a3" stroke-width="13.5" stroke-linecap="round" stroke-linejoin="round"/><path d="M840.0 489.8 L823.8 511.4" fill="none" stroke="#9bb0b8" stroke-width="10.8" stroke-linecap="round" stroke-linejoin="round"/><path d="M840.0 489.8 L856.2 511.4" fill="none" stroke="#9bb0b8" stroke-width="10.8" stroke-linecap="round" stroke-linejoin="round"/><circle cx="840.0" cy="477.2" r="9.9" fill="#9bb0b8"/></g><g><ellipse cx="960.0" cy="562.7" rx="18.0" ry="3.6" fill="#000" opacity="0.12"/><path d="M949.2 560.0 L960.0 518.6" fill="none" stroke="#7f99a3" stroke-width="10.8" stroke-linecap="round" stroke-linejoin="round"/><path d="M970.8 560.0 L960.0 518.6" fill="none" stroke="#7f99a3" stroke-width="10.8" stroke-linecap="round" stroke-linejoin="round"/><path d="M960.0 518.6 L960.0 489.8" fill="none" stroke="#7f99a3" stroke-width="13.5" stroke-linecap="round" stroke-linejoin="round"/><path d="M960.0 489.8 L943.8 511.4" fill="none" stroke="#9bb0b8" stroke-width="10.8" stroke-linecap="round" stroke-linejoin="round"/><path d="M960.0 489.8 L976.2 511.4" fill="none" stroke="#9bb0b8" stroke-width="10.8" stroke-linecap="round" stroke-linejoin="round"/><circle cx="960.0" cy="477.2" r="9.9" fill="#9bb0b8"/></g><g><ellipse cx="1080.0" cy="562.7" rx="18.0" ry="3.6" fill="#000" opacity="0.12"/><path d="M1069.2 560.0 L1080.0 518.6" fill="none" stroke="#7f99a3" stroke-width="10.8" stroke-linecap="round" stroke-linejoin="round"/><path d="M1090.8 560.0 L1080.0 518.6" fill="none" stroke="#7f99a3" stroke-width="10.8" stroke-linecap="round" stroke-linejoin="round"/><path d="M1080.0 518.6 L1080.0 489.8" fill="none" stroke="#7f99a3" stroke-width="13.5" stroke-linecap="round" stroke-linejoin="round"/><path d="M1080.0 489.8 L1063.8 511.4" fill="none" stroke="#9bb0b8" stroke-width="10.8" stroke-linecap="round" stroke-linejoin="round"/><path d="M1080.0 489.8 L1096.2 511.4" fill="none" stroke="#9bb0b8" stroke-width="10.8" stroke-linecap="round" stroke-linejoin="round"/><circle cx="1080.0" cy="477.2" r="9.9" fill="#9bb0b8"/></g><rect y="520" width="1200" height="380" fill="#f4ead7"/><rect y="520" width="1200" height="40" fill="#e6d6b8" opacity="0.4"/><defs><pattern id="mesh25871" width="9" height="9" patternUnits="userSpaceOnUse"><path d="M9 0H0V9" fill="none" stroke="#0c2b3a" stroke-width="1" opacity="0.5"/></pattern></defs><rect x="120.0" y="470.0" width="960.0" height="150.0" fill="url(#mesh25871)"/><rect x="120.0" y="465.0" width="960.0" height="5" fill="#11212b"/><rect x="120.0" y="620.0" width="960.0" height="3" fill="#11212b"/><rect x="120" y="320" width="6" height="300" fill="#071c27"/><rect x="1074" y="320" width="6" height="300" fill="#071c27"/><g><ellipse cx="470.0" cy="707.5" rx="50.0" ry="10.0" fill="#000" opacity="0.12"/><path d="M430.0 650.0 L430.0 595.0 L470.0 540.0" fill="none" stroke="#3f7fc4" stroke-width="30.0" stroke-linecap="round" stroke-linejoin="round"/><path d="M510.0 650.0 L515.0 595.0 L470.0 540.0" fill="none" stroke="#3f7fc4" stroke-width="30.0" stroke-linecap="round" stroke-linejoin="round"/><path d="M470.0 540.0 L470.0 460.0" fill="none" stroke="#3f7fc4" stroke-width="37.5" stroke-linecap="round" stroke-linejoin="round"/><path d="M470.0 460.0 L430.0 405.0 L420.0 355.0" fill="none" stroke="#e7c39c" stroke-width="30.0" stroke-linecap="round" stroke-linejoin="round"/><path d="M470.0 460.0 L510.0 405.0 L520.0 355.0" fill="none" stroke="#e7c39c" stroke-width="30.0" stroke-linecap="round" stroke-linejoin="round"/><circle cx="470.0" cy="425.0" r="27.5" fill="#e7c39c"/></g><g><ellipse cx="740.0" cy="707.5" rx="50.0" ry="10.0" fill="#000" opacity="0.12"/><path d="M780.0 650.0 L780.0 595.0 L740.0 540.0" fill="none" stroke="#2f3b52" stroke-width="30.0" stroke-linecap="round" stroke-linejoin="round"/><path d="M700.0 650.0 L695.0 595.0 L740.0 540.0" fill="none" stroke="#2f3b52" stroke-width="30.0" stroke-linecap="round" stroke-linejoin="round"/><path d="M740.0 540.0 L740.0 460.0" fill="none" stroke="#2f3b52" stroke-width="37.5" stroke-linecap="round" stroke-linejoin="round"/><path d="M740.0 460.0 L780.0 405.0 L790.0 355.0" fill="none" stroke="#e7c39c" stroke-width="30.0" stroke-linecap="round" stroke-linejoin="round"/><path d="M740.0 460.0 L700.0 405.0 L690.0 355.0" fill="none" stroke="#e7c39c" stroke-width="30.0" stroke-linecap="round" stroke-linejoin="round"/><circle cx="740.0" cy="425.0" r="27.5" fill="#e7c39c"/></g><g><circle cx="605.0" cy="330.0" r="30.0" fill="#fff" stroke="#d8cdb6" stroke-width="1.80"/><path d="M575.0 330.0 Q605.0 315.0 635.0 330.0" fill="none" stroke="#ffc14d" stroke-width="3.00" opacity="0.7"/><path d="M605.0 300.0 Q620.0 330.0 605.0 360.0" fill="none" stroke="#ffc14d" stroke-width="3.00" opacity="0.7"/></g></svg>